<?xml version="1.0" encoding="UTF-8" standalone="no"?>
<!DOCTYPE svg PUBLIC "-//W3C//DTD SVG 1.1//EN"
 "http://www.w3.org/Graphics/SVG/1.1/DTD/svg11.dtd">
<!-- Generated by graphviz version 2.44.0 (20200408.0750)
 -->
<!-- Title: G Pages: 1 -->
<svg width="339pt" height="222pt"
 viewBox="0.00 0.00 339.00 222.00" xmlns="http://www.w3.org/2000/svg" xmlns:xlink="http://www.w3.org/1999/xlink">
<g id="graph0" class="graph" transform="scale(1 1) rotate(0) translate(4 218)">
<title>G</title>
<polygon fill="white" stroke="transparent" points="-4,4 -4,-218 335,-218 335,4 -4,4"/>
<g id="clust1" class="cluster">
<title>cluster_Global</title>
<path fill="none" stroke="gray" d="M20,-8C20,-8 311,-8 311,-8 317,-8 323,-14 323,-20 323,-20 323,-194 323,-194 323,-200 317,-206 311,-206 311,-206 20,-206 20,-206 14,-206 8,-200 8,-194 8,-194 8,-20 8,-20 8,-14 14,-8 20,-8"/>
<text text-anchor="middle" x="165.5" y="-193.2" font-family="Times,serif" font-size="11.00" fill="gray">Global</text>
</g>
<g id="clust2" class="cluster">
<title>cluster_\MelonSmasher</title>
<path fill="none" stroke="gray" d="M28,-16C28,-16 303,-16 303,-16 309,-16 315,-22 315,-28 315,-28 315,-166 315,-166 315,-172 309,-178 303,-178 303,-178 28,-178 28,-178 22,-178 16,-172 16,-166 16,-166 16,-28 16,-28 16,-22 22,-16 28,-16"/>
<text text-anchor="middle" x="165.5" y="-165.2" font-family="Times,serif" font-size="11.00" fill="gray">MelonSmasher</text>
</g>
<g id="clust3" class="cluster">
<title>cluster_\MelonSmasher\EthosPHP</title>
<path fill="none" stroke="gray" d="M36,-24C36,-24 295,-24 295,-24 301,-24 307,-30 307,-36 307,-36 307,-138 307,-138 307,-144 301,-150 295,-150 295,-150 36,-150 36,-150 30,-150 24,-144 24,-138 24,-138 24,-36 24,-36 24,-30 30,-24 36,-24"/>
<text text-anchor="middle" x="165.5" y="-137.2" font-family="Times,serif" font-size="11.00" fill="gray">EthosPHP</text>
</g>
<!-- \\MelonSmasher\\EthosPHP\\EthosClient -->
<g id="node1" class="node">
<title>\\MelonSmasher\\EthosPHP\\EthosClient</title>
<polygon fill="none" stroke="black" points="123,-122 32,-122 32,-86 123,-86 123,-122"/>
<text text-anchor="middle" x="77.5" y="-101.2" font-family="Courier,monospace" font-size="11.00">EthosClient</text>
</g>
<!-- \\MelonSmasher\\EthosPHP\\PersonsClient -->
<g id="node2" class="node">
<title>\\MelonSmasher\\EthosPHP\\PersonsClient</title>
<polygon fill="none" stroke="black" points="299,-122 195,-122 195,-86 299,-86 299,-122"/>
<text text-anchor="middle" x="247" y="-101.2" font-family="Courier,monospace" font-size="11.00">PersonsClient</text>
</g>
<!-- \\MelonSmasher\\EthosPHP\\PersonsClient&#45;&gt;\\MelonSmasher\\EthosPHP\\EthosClient -->
<g id="edge1" class="edge">
<title>\\MelonSmasher\\EthosPHP\\PersonsClient&#45;&gt;\\MelonSmasher\\EthosPHP\\EthosClient</title>
<path fill="none" stroke="black" d="M194.83,-104C175.34,-104 153.05,-104 133.23,-104"/>
<polygon fill="none" stroke="black" points="133.12,-100.5 123.12,-104 133.12,-107.5 133.12,-100.5"/>
</g>
<!-- \\MelonSmasher\\EthosPHP\\Ethos -->
<g id="node3" class="node">
<title>\\MelonSmasher\\EthosPHP\\Ethos</title>
<polygon fill="none" stroke="black" points="274,-68 220,-68 220,-32 274,-32 274,-68"/>
<text text-anchor="middle" x="247" y="-47.2" font-family="Courier,monospace" font-size="11.00">Ethos</text>
</g>
</g>
</svg>
