<?xml version="1.0" encoding="UTF-8" standalone="no"?>
<!DOCTYPE svg PUBLIC "-//W3C//DTD SVG 1.1//EN"
 "http://www.w3.org/Graphics/SVG/1.1/DTD/svg11.dtd">
<!-- Generated by graphviz version 2.44.0 (20200408.0750)
 -->
<!-- Title: G Pages: 1 -->
<svg width="353pt" height="330pt"
 viewBox="0.00 0.00 353.00 330.00" xmlns="http://www.w3.org/2000/svg" xmlns:xlink="http://www.w3.org/1999/xlink">
<g id="graph0" class="graph" transform="scale(1 1) rotate(0) translate(4 326)">
<title>G</title>
<polygon fill="white" stroke="transparent" points="-4,4 -4,-326 349,-326 349,4 -4,4"/>
<g id="clust1" class="cluster">
<title>cluster_Global</title>
<path fill="none" stroke="gray" d="M20,-8C20,-8 325,-8 325,-8 331,-8 337,-14 337,-20 337,-20 337,-302 337,-302 337,-308 331,-314 325,-314 325,-314 20,-314 20,-314 14,-314 8,-308 8,-302 8,-302 8,-20 8,-20 8,-14 14,-8 20,-8"/>
<text text-anchor="middle" x="172.5" y="-301.2" font-family="Times,serif" font-size="11.00" fill="gray">Global</text>
</g>
<g id="clust2" class="cluster">
<title>cluster_\MelonSmasher</title>
<path fill="none" stroke="gray" d="M28,-16C28,-16 317,-16 317,-16 323,-16 329,-22 329,-28 329,-28 329,-274 329,-274 329,-280 323,-286 317,-286 317,-286 28,-286 28,-286 22,-286 16,-280 16,-274 16,-274 16,-28 16,-28 16,-22 22,-16 28,-16"/>
<text text-anchor="middle" x="172.5" y="-273.2" font-family="Times,serif" font-size="11.00" fill="gray">MelonSmasher</text>
</g>
<g id="clust3" class="cluster">
<title>cluster_\MelonSmasher\EthosPHP</title>
<path fill="none" stroke="gray" d="M36,-24C36,-24 309,-24 309,-24 315,-24 321,-30 321,-36 321,-36 321,-246 321,-246 321,-252 315,-258 309,-258 309,-258 36,-258 36,-258 30,-258 24,-252 24,-246 24,-246 24,-36 24,-36 24,-30 30,-24 36,-24"/>
<text text-anchor="middle" x="172.5" y="-245.2" font-family="Times,serif" font-size="11.00" fill="gray">EthosPHP</text>
</g>
<!-- \\MelonSmasher\\EthosPHP\\EthosClient -->
<g id="node1" class="node">
<title>\\MelonSmasher\\EthosPHP\\EthosClient</title>
<polygon fill="none" stroke="black" points="123,-122 32,-122 32,-86 123,-86 123,-122"/>
<text text-anchor="middle" x="77.5" y="-101.2" font-family="Courier,monospace" font-size="11.00">EthosClient</text>
</g>
<!-- \\MelonSmasher\\EthosPHP\\PersonsClient -->
<g id="node2" class="node">
<title>\\MelonSmasher\\EthosPHP\\PersonsClient</title>
<polygon fill="none" stroke="black" points="306,-230 202,-230 202,-194 306,-194 306,-230"/>
<text text-anchor="middle" x="254" y="-209.2" font-family="Courier,monospace" font-size="11.00">PersonsClient</text>
</g>
<!-- \\MelonSmasher\\EthosPHP\\PersonsClient&#45;&gt;\\MelonSmasher\\EthosPHP\\EthosClient -->
<g id="edge1" class="edge">
<title>\\MelonSmasher\\EthosPHP\\PersonsClient&#45;&gt;\\MelonSmasher\\EthosPHP\\EthosClient</title>
<path fill="none" stroke="black" d="M211.99,-193.99C206.2,-191.13 200.39,-188.1 195,-185 165.27,-167.91 133.42,-145.46 110.55,-128.52"/>
<polygon fill="none" stroke="black" points="112.36,-125.5 102.25,-122.33 108.17,-131.11 112.36,-125.5"/>
</g>
<!-- \\MelonSmasher\\EthosPHP\\Ethos -->
<g id="node3" class="node">
<title>\\MelonSmasher\\EthosPHP\\Ethos</title>
<polygon fill="none" stroke="black" points="281,-176 227,-176 227,-140 281,-140 281,-176"/>
<text text-anchor="middle" x="254" y="-155.2" font-family="Courier,monospace" font-size="11.00">Ethos</text>
</g>
<!-- \\MelonSmasher\\EthosPHP\\CoursesClient -->
<g id="node4" class="node">
<title>\\MelonSmasher\\EthosPHP\\CoursesClient</title>
<polygon fill="none" stroke="black" points="306,-122 202,-122 202,-86 306,-86 306,-122"/>
<text text-anchor="middle" x="254" y="-101.2" font-family="Courier,monospace" font-size="11.00">CoursesClient</text>
</g>
<!-- \\MelonSmasher\\EthosPHP\\CoursesClient&#45;&gt;\\MelonSmasher\\EthosPHP\\EthosClient -->
<g id="edge2" class="edge">
<title>\\MelonSmasher\\EthosPHP\\CoursesClient&#45;&gt;\\MelonSmasher\\EthosPHP\\EthosClient</title>
<path fill="none" stroke="black" d="M201.59,-104C180.06,-104 155.02,-104 133.16,-104"/>
<polygon fill="none" stroke="black" points="133.04,-100.5 123.04,-104 133.04,-107.5 133.04,-100.5"/>
</g>
<!-- \\MelonSmasher\\EthosPHP\\AddressesClient -->
<g id="node5" class="node">
<title>\\MelonSmasher\\EthosPHP\\AddressesClient</title>
<polygon fill="none" stroke="black" points="313,-68 195,-68 195,-32 313,-32 313,-68"/>
<text text-anchor="middle" x="254" y="-47.2" font-family="Courier,monospace" font-size="11.00">AddressesClient</text>
</g>
<!-- \\MelonSmasher\\EthosPHP\\AddressesClient&#45;&gt;\\MelonSmasher\\EthosPHP\\EthosClient -->
<g id="edge3" class="edge">
<title>\\MelonSmasher\\EthosPHP\\AddressesClient&#45;&gt;\\MelonSmasher\\EthosPHP\\EthosClient</title>
<path fill="none" stroke="black" d="M194.89,-67.98C174.88,-74.18 152.55,-81.09 132.84,-87.18"/>
<polygon fill="none" stroke="black" points="131.62,-83.9 123.11,-90.2 133.69,-90.58 131.62,-83.9"/>
</g>
</g>
</svg>
